# xmcd
#
# Track frame offsets:
#	165
#	20411
#	39856
#	58041
#	74856
#	95585
#	112224
#	128420
#	147599
#	162070
#	181932
#	202586
#	216713
#	229947
#	243289
#
# Disc length: 3457 seconds
#
# Revision: 0
# Processed by: cddbd v1.4PL0 Copyright (c) Steve Scherf et al.
# Submitted via: EasyCDDAExtractor 4.6.9.1
#
DISCID=da0d7f0f
DTITLE=Gian e Giovanni - 1997
DYEAR=1997
DGENRE=Sertanejo
TTITLE0=Não Vivo Sem Você
TTITLE1=Eu Busco uma Estrela
TTITLE2=Tentativas
TTITLE3=Minhas Leis
TTITLE4=Amigo, Amigo
TTITLE5=Que Raio de Amor É Esse
TTITLE6=Um Amor para Dois Amigos
TTITLE7=Limites da Paixão
TTITLE8=Querer e Perder
TTITLE9=Amigo Seu
TTITLE10=Sei Que Vou Querer Te Amar
TTITLE11=Me Dá Um Beijo
TTITLE12=Doidinho, Doidinho
TTITLE13=Meu Último Amor
TTITLE14=Sei Que Vou Querer Te Amar
EXTD=
EXTT0=
EXTT1=
EXTT2=
EXTT3=
EXTT4=
EXTT5=
EXTT6=
EXTT7=
EXTT8=
EXTT9=
EXTT10=
EXTT11=
EXTT12=
EXTT13=
EXTT14=
PLAYORDER=
